<svg id="Layer_1" data-name="Layer 1" xmlns="http://www.w3.org/2000/svg" viewBox="0 0 107.47 122.88"><defs><style>.cls-1{fill-rule:evenodd;}</style></defs><title>software-engineer</title><path class="cls-1" d="M45.23,107.74l-7.56,2.84,7.56,2.88v6.66l-10-5.67c-4.38-2.48-4.42-5.19,0-7.69l10-5.68v6.66ZM39.3,76.42c7.28,8.18,23.77,6.74,29.86,0a56.89,56.89,0,0,1-4.22-5.7l-.84-1.22a17.5,17.5,0,0,1-10.13,3,17,17,0,0,1-11.08-4c-.83,2.48-2,5.89-3.22,7.52a1.8,1.8,0,0,1-.37.36Zm28.34,14.5H10a4,4,0,0,0-3.73,4.66l3.53,27.3h-9c0-14.58-5.17-32.46,10.09-41,5.68-3.17,20.32-4.24,26.7-8.43a54.08,54.08,0,0,0,2.71-7.08c.07-.22-.05.14.06-.19a56,56,0,0,1-6.1-8.43L29,49.42c-1.93-2.87-2.93-5.5-3-7.65A6,6,0,0,1,26.57,39a5.07,5.07,0,0,1,1.81-2.1,6.58,6.58,0,0,1,1.27-.65,133.75,133.75,0,0,1-.25-15,20.68,20.68,0,0,1,.65-3.41C32,11,37.89,6,44.65,3.66,47.93,2.53,46.66-.17,50,0c7.86.43,20,5.49,24.63,10.86,6.52,7.52,4.84,16.78,4.62,26h0A3.83,3.83,0,0,1,82,39.69c.42,1.66,0,4-1.45,7.19h0s0,.11-.09.17l-6,9.87c-2.31,3.81-4.66,7.62-7.79,10.56l-.16.14,1,1.4c1,1.53,2.22,3.27,3.32,4.63,6.52,4,20.85,5.14,26.46,8.26,14,7.82,9.23,27.13,10,41H98.38l3.53-27.3a4,4,0,0,0-3.73-4.66H67.64Zm-35-52.21A5.25,5.25,0,0,0,30,39.4a2.2,2.2,0,0,0-.76.88A3.23,3.23,0,0,0,29,41.69c.05,1.6.89,3.69,2.51,6.1l0,0h0l5.26,8.37c2.11,3.35,4.33,6.77,7.07,9.28A14.45,14.45,0,0,0,54,69.55a14.88,14.88,0,0,0,10.68-4.24c2.84-2.66,5.07-6.29,7.28-9.93l5.92-9.76c1.11-2.52,1.51-4.21,1.26-5.19-.15-.59-.8-.88-1.91-.94q-.36,0-.72,0a8,8,0,0,0-.83,0,1.75,1.75,0,0,1-.46,0,8.09,8.09,0,0,1-1.62-.09l2-9c-15.06,2.37-26.33-8.82-42.25-2.24L34.5,38.79a9,9,0,0,1-1.82-.08Zm29.57,69,7.56,2.84-7.56,2.88v6.66l10-5.67c4.38-2.48,4.41-5.19,0-7.69l-10-5.68v6.66ZM53.58,122h-5l6.18-24.06h5L53.58,122Z"/></svg>