<svg width="156" height="156" viewBox="0 0 156 156" fill="none" xmlns="http://www.w3.org/2000/svg">
  <path
    d="M79.2686 43.7787C79.0167 43.2531 78.6387 43 78.1138 43H77.8408C77.3159 43 76.938 43.2531 76.686 43.7592L63.101 71.9877C62.8281 72.5912 63.122 72.9805 63.8149 72.9805H68.3083C68.7912 72.9805 69.1691 72.7274 69.4001 72.2213L70.6809 69.3595H85.3367L86.6175 72.2408C86.8485 72.7469 87.2054 73 87.6884 73H92.2027C92.8956 73 93.1685 72.5717 92.8956 72.0071L79.2686 43.7787ZM78.0088 52.8702L83.237 64.6483H72.7596L78.0088 52.8702Z"
    fill="currentColor" />
  <path
    d="M76.7314 112.221C76.9833 112.747 77.3613 113 77.8862 113L78.1592 113C78.6841 113 79.062 112.747 79.314 112.241L92.899 84.0123C93.1719 83.4088 92.878 83.0195 92.1851 83.0195L87.6917 83.0195C87.2088 83.0195 86.8309 83.2725 86.5999 83.7787L85.3191 86.6405L70.6633 86.6405L69.3825 83.7592C69.1515 83.2531 68.7946 83 68.3116 83L63.7973 83C63.1044 83 62.8315 83.4283 63.1044 83.9929L76.7314 112.221ZM77.9912 103.13L72.763 91.3517L83.2404 91.3517L77.9912 103.13Z"
    fill="currentColor" />
  <rect x="2" y="2" width="152" height="152" stroke="currentColor" stroke-width="4" />
</svg>
