<?xml version="1.0"?>
<svg xmlns="http://www.w3.org/2000/svg" xmlns:xlink="http://www.w3.org/1999/xlink" xmlns:svgjs="http://svgjs.com/svgjs" version="1.1" width="512" height="512" x="0" y="0" viewBox="0 0 377.343 377.343" style="enable-background:new 0 0 512 512" xml:space="preserve" class=""><g>
<g xmlns="http://www.w3.org/2000/svg">
	<path d="M301.689,53.505H75.651c-10.876,0-19.725,8.843-19.725,19.718v230.911c0,10.866,8.843,19.715,19.725,19.715h226.039   c10.873,0,19.722-8.843,19.722-19.715V73.223C321.406,62.348,312.562,53.505,301.689,53.505z M162.934,229.026l-32.287-62.199   h-11.25v62.199h-38.03V76.356h76.206c10.022,0,18.912,2.834,26.672,8.506c7.747,5.669,11.632,12.26,11.632,19.773v33.816   c0,5.962-2.484,11.368-7.453,16.228c-4.97,4.856-11.078,8.292-18.301,10.298l33.456,64.049H162.934z M119.401,104.534h38.434   v34.014h-38.434V104.534z M338.677,0H38.662C19.094,0,3.226,15.869,3.226,35.439v306.464c0,19.573,15.869,35.439,35.437,35.439   h300.02c19.568,0,35.436-15.866,35.436-35.439V35.439C374.117,15.869,358.25,0,338.677,0z M335.381,304.122   c0,18.572-15.113,33.691-33.691,33.691H75.651c-18.576,0-33.695-15.114-33.695-33.691V73.223c0-18.569,15.114-33.688,33.695-33.688   h226.039c18.572,0,33.691,15.114,33.691,33.688V304.122z" fill="#ee2b47" data-original="#000000" style="" class=""/>
</g>
<g xmlns="http://www.w3.org/2000/svg">
</g>
<g xmlns="http://www.w3.org/2000/svg">
</g>
<g xmlns="http://www.w3.org/2000/svg">
</g>
<g xmlns="http://www.w3.org/2000/svg">
</g>
<g xmlns="http://www.w3.org/2000/svg">
</g>
<g xmlns="http://www.w3.org/2000/svg">
</g>
<g xmlns="http://www.w3.org/2000/svg">
</g>
<g xmlns="http://www.w3.org/2000/svg">
</g>
<g xmlns="http://www.w3.org/2000/svg">
</g>
<g xmlns="http://www.w3.org/2000/svg">
</g>
<g xmlns="http://www.w3.org/2000/svg">
</g>
<g xmlns="http://www.w3.org/2000/svg">
</g>
<g xmlns="http://www.w3.org/2000/svg">
</g>
<g xmlns="http://www.w3.org/2000/svg">
</g>
<g xmlns="http://www.w3.org/2000/svg">
</g>
</g></svg>
