<?xml version="1.0" encoding="utf-8"?>
<!-- Generator: Adobe Illustrator 24.1.0, SVG Export Plug-In . SVG Version: 6.00 Build 0)  -->
<svg version="1.1" xmlns="http://www.w3.org/2000/svg" xmlns:xlink="http://www.w3.org/1999/xlink" x="0px" y="0px"
	 viewBox="0 0 75.61 85.33" style="enable-background:new 0 0 75.61 85.33;" xml:space="preserve">
<style type="text/css">
	.st0{fill:#3C3C3B;}
	.st1{fill:#DADADA;}
	.st2{fill:none;stroke:#1D1D1B;stroke-miterlimit:10;}
	.st3{fill:#F9B233;}
	.st4{fill:#575756;}
	.st5{fill:none;stroke:#000000;stroke-miterlimit:10;}
	.st6{fill:none;stroke:#3C3C3B;stroke-miterlimit:10;}
	.st7{fill:none;stroke:#575756;stroke-width:0.5;stroke-miterlimit:10;}
</style>
<g id="Capa_1">
</g>
<g id="txt">
	<g>
		<path d="M75.61,33c0,3.78-1.32,7.03-4.01,9.71c-6.1,6.1-12.19,12.22-18.33,18.29c-0.74,0.74-0.76,1.13,0,1.87
			c2.69,2.6,5.28,5.29,7.96,7.89c0.69,0.67,0.62,1.03-0.03,1.67c-2.99,2.92-5.92,5.91-8.89,8.86c-5.27,5.24-13.72,5.46-19.01,0.25
			C23.41,71.8,13.6,61.98,3.85,52.09c-5.13-5.21-5.14-13.62-0.01-18.83c9.74-9.89,19.55-19.71,29.45-29.45
			c5.3-5.22,13.75-5.01,19.01,0.23c6.46,6.44,12.9,12.9,19.35,19.35C74.27,26.01,75.6,29.26,75.61,33z M42.55,71.4
			c0.38,0.01,0.52-0.25,0.7-0.43c2.8-2.79,5.58-5.61,8.42-8.38c0.63-0.61,0.33-0.91-0.12-1.37c-2.62-2.6-5.19-5.25-7.86-7.8
			c-0.89-0.85-0.86-1.32,0-2.17c5.82-5.75,11.59-11.55,17.38-17.34c0.47-0.47,1.01-0.76,0.21-1.55
			c-6.01-5.94-11.98-11.92-17.94-17.92c-0.54-0.54-0.84-0.53-1.37,0.01c-9.17,9.2-18.35,18.38-27.55,27.55
			c-0.55,0.55-0.51,0.84,0.02,1.37c9.2,9.17,18.38,18.36,27.56,27.54C42.19,71.08,42.39,71.25,42.55,71.4z"/>
	</g>
</g>
</svg>
