<svg xmlns="http://www.w3.org/2000/svg" width="55" height="55" viewBox="0 0 55 55">
  <defs>
    <style>
      .cls-1, .cls-2 {
        fill: none;
      }

      .cls-2 {
        stroke: #f23846;
        stroke-linecap: round;
        stroke-linejoin: round;
        stroke-width: 5px;
      }
    </style>
  </defs>
  <g id="instagram-icon" transform="translate(-1020.5 -64.5)">
    <rect id="Rectángulo_12" data-name="Rectángulo 12" class="cls-1" width="50" height="50" transform="translate(1023 67)"/>
    <path id="Trazado_2" data-name="Trazado 2" class="cls-2" d="M41.614,13.856h.025M8.182,2.5H46.818A5.682,5.682,0,0,1,52.5,8.182V46.818A5.682,5.682,0,0,1,46.818,52.5H8.182A5.682,5.682,0,0,1,2.5,46.818V8.182A5.682,5.682,0,0,1,8.182,2.5ZM37.83,26.145a10.094,10.094,0,1,1-2.847-5.657A10.093,10.093,0,0,1,37.83,26.145Z" transform="translate(1020.5 64.5)"/>
  </g>
</svg>
