<svg xmlns="http://www.w3.org/2000/svg" width="55" height="50" viewBox="0 0 55 50">
  <defs>
    <style>
      .cls-1, .cls-2 {
        fill: none;
      }

      .cls-2 {
        stroke: #048abf;
        stroke-linecap: round;
        stroke-linejoin: round;
        stroke-width: 5px;
      }
    </style>
  </defs>
  <g id="twitter-icon" transform="translate(-1136.5 -61)">
    <rect id="Rectángulo_13" data-name="Rectángulo 13" class="cls-1" width="50" height="50" transform="translate(1139 61)"/>
    <path id="twitter_2_" data-name="twitter(2)" class="cls-2" d="M51,3.013A24.773,24.773,0,0,1,43.864,6.49,10.182,10.182,0,0,0,26,13.309v2.273A24.227,24.227,0,0,1,5.545,5.286S-3.545,25.74,16.909,34.831A26.454,26.454,0,0,1,1,39.377c20.455,11.364,45.455,0,45.455-26.136a10.227,10.227,0,0,0-.182-1.886A17.545,17.545,0,0,0,51,3.013Z" transform="translate(1138 63.01)"/>
  </g>
</svg>
